<svg width="600" height="430" xmlns="http://www.w3.org/2000/svg"> <rect width="100%" height="100%" fill="#FEFEFE" />
<line x1="70" y1="274" x2="530" y2="274" stroke="#9f9f9f" stroke-width="1" />
<rect x="70" y="109" width="460" height="165" fill="#FEFEFE" />
<text text-anchor="middle" x="300.0" y="20" font-family="'Helvetica Neue', Arial, sans-serif" font-weight="bold" font-size="22" fill="#000000">Associates degrees awarded in</text>
<text text-anchor="middle" x="300.0" y="42" font-family="'Helvetica Neue', Arial, sans-serif" font-weight="bold" font-size="22" fill="#000000">Mathematics and statistics</text>
<text text-anchor="middle" x="300.0" y="64" font-family="'Helvetica Neue', Arial, sans-serif" font-size="14" fill="#000000">correlates with</text>
<text text-anchor="middle" x="300.0" y="90" font-family="'Helvetica Neue', Arial, sans-serif" font-weight="bold" font-size="22" fill="#ba0f27">Google searches for &apos;dollar store near me&apos;</text>
<text text-anchor="start" x="23" y="319.3333333333333" font-family="'Helvetica Neue', Arial, sans-serif" font-size="14" fill="#9f9f9f">Associate&apos;s degrees conferred by postsecondary institutions with a field of</text>
<text text-anchor="start" x="23" y="335.3333333333333" font-family="'Helvetica Neue', Arial, sans-serif" font-size="14" fill="#9f9f9f">study of Mathematics and statistics &#183; Source: National Center for Education</text>
<text text-anchor="start" x="23" y="351.3333333333333" font-family="'Helvetica Neue', Arial, sans-serif" font-size="14" fill="#9f9f9f">Statistics</text>
<text text-anchor="start" x="23" y="374.66666666666663" font-family="'Helvetica Neue', Arial, sans-serif" font-size="14" fill="#9f9f9f">Relative volume of Google searches for &apos;dollar store near me&apos;</text>
<text text-anchor="start" x="23" y="390.66666666666663" font-family="'Helvetica Neue', Arial, sans-serif" font-size="14" fill="#9f9f9f">(Worldwide, without quotes) &#183; Source: Google Trends</text>
<text text-anchor="start" x="23" y="413.99999999999994" font-family="'Helvetica Neue', Arial, sans-serif" font-size="14" fill="#9f9f9f">2011-2021, r=0.991, r&#178;=0.983, p&lt;0.01  &#183;  tylervigen.com/spurious/correlation/1783</text>
<polyline points="5,314.66666666666663 20,314.66666666666663" style="fill:none;stroke:#000000;stroke-width:2.8" stroke-dasharray="3,1" />
<polygon points="1.7000000000000002,314.66666666666663 5,311.3666666666666 8.3,314.66666666666663 5,317.96666666666664" stroke="#F7F7F7" stroke-width="2.75" fill="#F7F7F7"  />
<polygon points="1.7000000000000002,314.66666666666663 5,311.3666666666666 8.3,314.66666666666663 5,317.96666666666664" stroke="#000000" stroke-width="2.75" fill="#000000"  />
<polyline points="5,369.99999999999994 20,369.99999999999994" style="fill:none;stroke:#ba0f27;stroke-width:2.8" />
<circle cx="5" cy="369.99999999999994" r="2.75" stroke="#F7F7F7" stroke-width="2.75" fill="#F7F7F7" />
<circle cx="5" cy="369.99999999999994" r="2.75" stroke="#ba0f27" stroke-width="2.75" fill="#ba0f27"  />
<text x="5" y="196.5" transform="rotate(270 5 191.5)" text-anchor="middle" fill="#000000" font-family="'Helvetica Neue', Arial, sans-serif" font-size="14" dominant-baseline="central">Degrees awarded</text>
<text x="191.5" y="-389" transform="rotate(90 100 100)" text-anchor="middle" fill="#ba0f27" font-family="'Helvetica Neue', Arial, sans-serif" font-size="14" dominant-baseline="central">Rel. search volume</text>
<line x1="71" y1="116.75" x2="528" y2="116.75" stroke="#F3F3F3" stroke-width="1" fill="#FEFEFE" />
<text text-anchor="end" x="62" y="121.41666666666667" font-family="'Helvetica Neue', Arial, sans-serif" font-size="12" fill="#000000">4.9K</text>
<text text-anchor="start" x="538" y="121.41666666666667" font-family="'Helvetica Neue', Arial, sans-serif" font-size="12" fill="#ba0f27">72</text>
<line x1="71" y1="154.125" x2="528" y2="154.125" stroke="#F3F3F3" stroke-width="1" fill="#FEFEFE" />
<text text-anchor="end" x="62" y="158.79166666666666" font-family="'Helvetica Neue', Arial, sans-serif" font-size="12">4.0K</text>
<text text-anchor="start" x="538" y="158.79166666666666" font-family="'Helvetica Neue', Arial, sans-serif" font-size="12" fill="#ba0f27">54</text>
<line x1="71" y1="191.5" x2="528" y2="191.5" stroke="#F3F3F3" stroke-width="1" fill="#FEFEFE" />
<text text-anchor="end" x="62" y="196.16666666666666" font-family="'Helvetica Neue', Arial, sans-serif" font-size="12">3.2K</text>
<text text-anchor="start" x="538" y="196.16666666666666" font-family="'Helvetica Neue', Arial, sans-serif" font-size="12" fill="#ba0f27">36</text>
<line x1="71" y1="228.875" x2="528" y2="228.875" stroke="#F3F3F3" stroke-width="1" fill="#FEFEFE" />
<text text-anchor="end" x="62" y="233.54166666666666" font-family="'Helvetica Neue', Arial, sans-serif" font-size="12">2.4K</text>
<text text-anchor="start" x="538" y="233.54166666666666" font-family="'Helvetica Neue', Arial, sans-serif" font-size="12" fill="#ba0f27">18</text>
<line x1="71" y1="266.25" x2="528" y2="266.25" stroke="#F3F3F3" stroke-width="1" fill="#FEFEFE" />
<text text-anchor="end" x="62" y="270.9166666666667" font-family="'Helvetica Neue', Arial, sans-serif" font-size="12">1.5K</text>
<text text-anchor="start" x="538" y="270.9166666666667" font-family="'Helvetica Neue', Arial, sans-serif" font-size="12" fill="#ba0f27">0</text>
<polyline points="77.75,274 77.75,280" style="fill:none;stroke:#000000;stroke-width:1" />
<polyline points="122.2,274 122.2,280" style="fill:none;stroke:#000000;stroke-width:1" />
<polyline points="166.65,274 166.65,280" style="fill:none;stroke:#000000;stroke-width:1" />
<polyline points="211.10000000000002,274 211.10000000000002,280" style="fill:none;stroke:#000000;stroke-width:1" />
<polyline points="255.55,274 255.55,280" style="fill:none;stroke:#000000;stroke-width:1" />
<polyline points="300.0,274 300.0,280" style="fill:none;stroke:#000000;stroke-width:1" />
<polyline points="344.45000000000005,274 344.45000000000005,280" style="fill:none;stroke:#000000;stroke-width:1" />
<polyline points="388.90000000000003,274 388.90000000000003,280" style="fill:none;stroke:#000000;stroke-width:1" />
<polyline points="433.35,274 433.35,280" style="fill:none;stroke:#000000;stroke-width:1" />
<polyline points="477.8,274 477.8,280" style="fill:none;stroke:#000000;stroke-width:1" />
<polyline points="522.25,274 522.25,280" style="fill:none;stroke:#000000;stroke-width:1" />
<text text-anchor="middle" x="77.75" y="295" font-weight="bold" font-family="'Helvetica Neue', Arial, sans-serif" font-size="14">2011</text>
<text text-anchor="middle" x="122.2" y="295" font-weight="bold" font-family="'Helvetica Neue', Arial, sans-serif" font-size="14">2012</text>
<text text-anchor="middle" x="166.65" y="295" font-weight="bold" font-family="'Helvetica Neue', Arial, sans-serif" font-size="14">2013</text>
<text text-anchor="middle" x="211.10000000000002" y="295" font-weight="bold" font-family="'Helvetica Neue', Arial, sans-serif" font-size="14">2014</text>
<text text-anchor="middle" x="255.55" y="295" font-weight="bold" font-family="'Helvetica Neue', Arial, sans-serif" font-size="14">2015</text>
<text text-anchor="middle" x="300.0" y="295" font-weight="bold" font-family="'Helvetica Neue', Arial, sans-serif" font-size="14">2016</text>
<text text-anchor="middle" x="344.45000000000005" y="295" font-weight="bold" font-family="'Helvetica Neue', Arial, sans-serif" font-size="14">2017</text>
<text text-anchor="middle" x="388.90000000000003" y="295" font-weight="bold" font-family="'Helvetica Neue', Arial, sans-serif" font-size="14">2018</text>
<text text-anchor="middle" x="433.35" y="295" font-weight="bold" font-family="'Helvetica Neue', Arial, sans-serif" font-size="14">2019</text>
<text text-anchor="middle" x="477.8" y="295" font-weight="bold" font-family="'Helvetica Neue', Arial, sans-serif" font-size="14">2020</text>
<text text-anchor="middle" x="522.25" y="295" font-weight="bold" font-family="'Helvetica Neue', Arial, sans-serif" font-size="14">2021</text>
<polyline points="77.75,266.25 122.2,264.18793103448274" style="fill:none;stroke:#ba0f27;stroke-width:2.8"  />
<polyline points="122.2,264.18793103448274 166.65,259.548275862069" style="fill:none;stroke:#ba0f27;stroke-width:2.8"  />
<polyline points="166.65,259.548275862069 211.10000000000002,254.39310344827587" style="fill:none;stroke:#ba0f27;stroke-width:2.8"  />
<polyline points="211.10000000000002,254.39310344827587 255.55,233.08512620689655" style="fill:none;stroke:#ba0f27;stroke-width:2.8"  />
<polyline points="255.55,233.08512620689655 300.0,202.84137931034482" style="fill:none;stroke:#ba0f27;stroke-width:2.8"  />
<polyline points="300.0,202.84137931034482 344.45000000000005,171.73857448275862" style="fill:none;stroke:#ba0f27;stroke-width:2.8"  />
<polyline points="344.45000000000005,171.73857448275862 388.90000000000003,149.05581586206895" style="fill:none;stroke:#ba0f27;stroke-width:2.8"  />
<polyline points="388.90000000000003,149.05581586206895 433.35,123.6234944827586" style="fill:none;stroke:#ba0f27;stroke-width:2.8"  />
<polyline points="433.35,123.6234944827586 477.8,116.75" style="fill:none;stroke:#ba0f27;stroke-width:2.8"  />
<polyline points="477.8,116.75 522.25,128.2631496551724" style="fill:none;stroke:#ba0f27;stroke-width:2.8"  />
<circle cx="77.75" cy="266.25" r="2.75" stroke="#F7F7F7" stroke-width="2.75" fill="#F7F7F7" />
<circle cx="77.75" cy="266.25" r="2.75" stroke="#ba0f27" stroke-width="2.75" fill="#ba0f27"  />
<circle cx="122.2" cy="264.18793103448274" r="2.75" stroke="#F7F7F7" stroke-width="2.75" fill="#F7F7F7" />
<circle cx="122.2" cy="264.18793103448274" r="2.75" stroke="#ba0f27" stroke-width="2.75" fill="#ba0f27"  />
<circle cx="166.65" cy="259.548275862069" r="2.75" stroke="#F7F7F7" stroke-width="2.75" fill="#F7F7F7" />
<circle cx="166.65" cy="259.548275862069" r="2.75" stroke="#ba0f27" stroke-width="2.75" fill="#ba0f27"  />
<circle cx="211.10000000000002" cy="254.39310344827587" r="2.75" stroke="#F7F7F7" stroke-width="2.75" fill="#F7F7F7" />
<circle cx="211.10000000000002" cy="254.39310344827587" r="2.75" stroke="#ba0f27" stroke-width="2.75" fill="#ba0f27"  />
<circle cx="255.55" cy="233.08512620689655" r="2.75" stroke="#F7F7F7" stroke-width="2.75" fill="#F7F7F7" />
<circle cx="255.55" cy="233.08512620689655" r="2.75" stroke="#ba0f27" stroke-width="2.75" fill="#ba0f27"  />
<circle cx="300.0" cy="202.84137931034482" r="2.75" stroke="#F7F7F7" stroke-width="2.75" fill="#F7F7F7" />
<circle cx="300.0" cy="202.84137931034482" r="2.75" stroke="#ba0f27" stroke-width="2.75" fill="#ba0f27"  />
<circle cx="344.45000000000005" cy="171.73857448275862" r="2.75" stroke="#F7F7F7" stroke-width="2.75" fill="#F7F7F7" />
<circle cx="344.45000000000005" cy="171.73857448275862" r="2.75" stroke="#ba0f27" stroke-width="2.75" fill="#ba0f27"  />
<circle cx="388.90000000000003" cy="149.05581586206895" r="2.75" stroke="#F7F7F7" stroke-width="2.75" fill="#F7F7F7" />
<circle cx="388.90000000000003" cy="149.05581586206895" r="2.75" stroke="#ba0f27" stroke-width="2.75" fill="#ba0f27"  />
<circle cx="433.35" cy="123.6234944827586" r="2.75" stroke="#F7F7F7" stroke-width="2.75" fill="#F7F7F7" />
<circle cx="433.35" cy="123.6234944827586" r="2.75" stroke="#ba0f27" stroke-width="2.75" fill="#ba0f27"  />
<circle cx="477.8" cy="116.75" r="2.75" stroke="#F7F7F7" stroke-width="2.75" fill="#F7F7F7" />
<circle cx="477.8" cy="116.75" r="2.75" stroke="#ba0f27" stroke-width="2.75" fill="#ba0f27"  />
<circle cx="522.25" cy="128.2631496551724" r="2.75" stroke="#F7F7F7" stroke-width="2.75" fill="#F7F7F7" />
<circle cx="522.25" cy="128.2631496551724" r="2.75" stroke="#ba0f27" stroke-width="2.75" fill="#ba0f27"  />
<polyline points="77.75,261.0746538229982 122.2,266.25" style="fill:none;stroke:#000000;stroke-width:2.8" stroke-dasharray="3,1"  />
<polyline points="122.2,266.25 166.65,254.00918121613486" style="fill:none;stroke:#000000;stroke-width:2.8" stroke-dasharray="3,1"  />
<polyline points="166.65,254.00918121613486 211.10000000000002,238.39313666465983" style="fill:none;stroke:#000000;stroke-width:2.8" stroke-dasharray="3,1"  />
<polyline points="211.10000000000002,238.39313666465983 255.55,213.68648404575558" style="fill:none;stroke:#000000;stroke-width:2.8" stroke-dasharray="3,1"  />
<polyline points="255.55,213.68648404575558 300.0,198.83549066827214" style="fill:none;stroke:#000000;stroke-width:2.8" stroke-dasharray="3,1"  />
<polyline points="300.0,198.83549066827214 344.45000000000005,179.61920529801324" style="fill:none;stroke:#000000;stroke-width:2.8" stroke-dasharray="3,1"  />
<polyline points="344.45000000000005,179.61920529801324 388.90000000000003,148.9721553281156" style="fill:none;stroke:#000000;stroke-width:2.8" stroke-dasharray="3,1"  />
<polyline points="388.90000000000003,148.9721553281156 433.35,126.60565924142082" style="fill:none;stroke:#000000;stroke-width:2.8" stroke-dasharray="3,1"  />
<polyline points="433.35,126.60565924142082 477.8,116.75" style="fill:none;stroke:#000000;stroke-width:2.8" stroke-dasharray="3,1"  />
<polyline points="477.8,116.75 522.25,117.15502709211319" style="fill:none;stroke:#000000;stroke-width:2.8" stroke-dasharray="3,1"  />
<polygon points="74.45,261.0746538229982 77.75,257.7746538229982 81.05,261.0746538229982 77.75,264.3746538229982" stroke="#F7F7F7" stroke-width="2.75" fill="#F7F7F7"  />
<polygon points="74.45,261.0746538229982 77.75,257.7746538229982 81.05,261.0746538229982 77.75,264.3746538229982" stroke="#000000" stroke-width="2.75" fill="#000000"  />
<polygon points="118.9,266.25 122.2,262.95 125.5,266.25 122.2,269.55" stroke="#F7F7F7" stroke-width="2.75" fill="#F7F7F7"  />
<polygon points="118.9,266.25 122.2,262.95 125.5,266.25 122.2,269.55" stroke="#000000" stroke-width="2.75" fill="#000000"  />
<polygon points="163.35,254.00918121613486 166.65,250.70918121613485 169.95000000000002,254.00918121613486 166.65,257.30918121613485" stroke="#F7F7F7" stroke-width="2.75" fill="#F7F7F7"  />
<polygon points="163.35,254.00918121613486 166.65,250.70918121613485 169.95000000000002,254.00918121613486 166.65,257.30918121613485" stroke="#000000" stroke-width="2.75" fill="#000000"  />
<polygon points="207.8,238.39313666465983 211.10000000000002,235.09313666465982 214.40000000000003,238.39313666465983 211.10000000000002,241.69313666465985" stroke="#F7F7F7" stroke-width="2.75" fill="#F7F7F7"  />
<polygon points="207.8,238.39313666465983 211.10000000000002,235.09313666465982 214.40000000000003,238.39313666465983 211.10000000000002,241.69313666465985" stroke="#000000" stroke-width="2.75" fill="#000000"  />
<polygon points="252.25,213.68648404575558 255.55,210.38648404575557 258.85,213.68648404575558 255.55,216.9864840457556" stroke="#F7F7F7" stroke-width="2.75" fill="#F7F7F7"  />
<polygon points="252.25,213.68648404575558 255.55,210.38648404575557 258.85,213.68648404575558 255.55,216.9864840457556" stroke="#000000" stroke-width="2.75" fill="#000000"  />
<polygon points="296.7,198.83549066827214 300.0,195.53549066827213 303.3,198.83549066827214 300.0,202.13549066827215" stroke="#F7F7F7" stroke-width="2.75" fill="#F7F7F7"  />
<polygon points="296.7,198.83549066827214 300.0,195.53549066827213 303.3,198.83549066827214 300.0,202.13549066827215" stroke="#000000" stroke-width="2.75" fill="#000000"  />
<polygon points="341.15000000000003,179.61920529801324 344.45000000000005,176.31920529801323 347.75000000000006,179.61920529801324 344.45000000000005,182.91920529801325" stroke="#F7F7F7" stroke-width="2.75" fill="#F7F7F7"  />
<polygon points="341.15000000000003,179.61920529801324 344.45000000000005,176.31920529801323 347.75000000000006,179.61920529801324 344.45000000000005,182.91920529801325" stroke="#000000" stroke-width="2.75" fill="#000000"  />
<polygon points="385.6,148.9721553281156 388.90000000000003,145.6721553281156 392.20000000000005,148.9721553281156 388.90000000000003,152.27215532811562" stroke="#F7F7F7" stroke-width="2.75" fill="#F7F7F7"  />
<polygon points="385.6,148.9721553281156 388.90000000000003,145.6721553281156 392.20000000000005,148.9721553281156 388.90000000000003,152.27215532811562" stroke="#000000" stroke-width="2.75" fill="#000000"  />
<polygon points="430.05,126.60565924142082 433.35,123.30565924142083 436.65000000000003,126.60565924142082 433.35,129.90565924142084" stroke="#F7F7F7" stroke-width="2.75" fill="#F7F7F7"  />
<polygon points="430.05,126.60565924142082 433.35,123.30565924142083 436.65000000000003,126.60565924142082 433.35,129.90565924142084" stroke="#000000" stroke-width="2.75" fill="#000000"  />
<polygon points="474.5,116.75 477.8,113.45 481.1,116.75 477.8,120.05" stroke="#F7F7F7" stroke-width="2.75" fill="#F7F7F7"  />
<polygon points="474.5,116.75 477.8,113.45 481.1,116.75 477.8,120.05" stroke="#000000" stroke-width="2.75" fill="#000000"  />
<polygon points="518.95,117.15502709211319 522.25,113.85502709211319 525.55,117.15502709211319 522.25,120.45502709211318" stroke="#F7F7F7" stroke-width="2.75" fill="#F7F7F7"  />
<polygon points="518.95,117.15502709211319 522.25,113.85502709211319 525.55,117.15502709211319 522.25,120.45502709211318" stroke="#000000" stroke-width="2.75" fill="#000000"  />
</svg>